<?xml version="1.0" encoding="utf-8"?>
<!-- Generator: Adobe Illustrator 18.1.0, SVG Export Plug-In . SVG Version: 6.00 Build 0)  -->
<svg version="1.1" xmlns="http://www.w3.org/2000/svg" xmlns:xlink="http://www.w3.org/1999/xlink" x="0px" y="0px"
	 viewBox="0 0 35 200" enable-background="new 0 0 35 200" xml:space="preserve">
	<g>
		<path fill="#ffffff" d="M31.7,147.3L31.7,147.3L31.7,147.3l-0.2,0c-0.5-0.2-1-0.3-1.4-0.5l-1.2-0.5c-0.4-0.2-0.8-0.3-1.2-0.5
			l-1-0.5c-0.3-0.2-0.6-0.3-0.9-0.5l-0.8-0.5c-0.3-0.2-0.5-0.3-0.7-0.5c-0.2-0.2-0.5-0.3-0.7-0.5c-0.2-0.2-0.4-0.3-0.6-0.5
			c-0.2-0.2-0.4-0.3-0.5-0.5c-0.3-0.3-0.7-0.7-0.8-1c-0.1-0.3,0.1-0.7,0.5-1c0.2-0.2,0.5-0.3,1-0.5c0.4-0.2,0.9-0.3,1.6-0.5l0.1,0
			l-7.4-88.5l-7.4,88.5l0.1,0c0.7,0.2,1.2,0.3,1.6,0.5c0.5,0.2,0.7,0.3,1,0.5c0.5,0.3,0.6,0.7,0.5,1c-0.1,0.3-0.5,0.7-0.8,1
			c-0.1,0.2-0.4,0.3-0.5,0.5c-0.2,0.2-0.4,0.3-0.6,0.5c-0.2,0.2-0.4,0.3-0.7,0.5c-0.2,0.2-0.5,0.3-0.7,0.5l-0.8,0.5
			c-0.3,0.2-0.5,0.3-0.9,0.5l-1,0.5c-0.3,0.2-0.8,0.3-1.2,0.5L5,146.8c-0.4,0.2-0.9,0.3-1.4,0.5H3.4l0,0l0.3,0.2
			c1.6,1.2,11.2,9.3,10.8,26.9c0,0.1,0,0.3,0,0.4c-0.1,1.9-0.3,3.7-0.4,5.6c-0.3,2-0.5,3.6-0.6,4.8c-0.2,0.3-0.5,0.7-0.7,1
			c-0.2,0.4,0,0.7,0.1,1.1c0.1,0.2,0.2,0.4,0.3,0.6c0,0.2,0,0.2,0,0c0.1,0.1,0.1,0.3,0.2,0.4c0.9,1.4,2.2,2.6,2.6,3.8
			c0.4,1.2,0.6,2.3,0.8,3.2c0.2,1,0.3,1.8,0.4,2.5c0.2,1.4,0.1,2.2,0.1,2.2h0.3c0,0,0-0.8,0.1-2.2c0.1-0.7,0.2-1.5,0.4-2.5
			c0.2-1,0.4-2,0.8-3.2c0.4-1.2,1.8-2.5,2.6-3.8c0.2-0.3,0.4-0.7,0.5-1c0.1-0.3,0.3-0.7,0.1-1.1c-0.2-0.4-0.5-0.7-0.7-1.1
			c-0.1-0.1-0.1-0.3-0.2-0.4c0-0.8-0.2-2.4-0.4-5C18.7,156.6,31.7,147.3,31.7,147.3z"/>
	</g>
</svg>
