<?xml version="1.0" encoding="utf-8"?>
<!-- Generator: Adobe Illustrator 18.1.0, SVG Export Plug-In . SVG Version: 6.00 Build 0)  -->
<svg version="1.1" xmlns="http://www.w3.org/2000/svg" xmlns:xlink="http://www.w3.org/1999/xlink" x="0px" y="0px"
	 viewBox="0 0 35 200" enable-background="new 0 0 35 200" xml:space="preserve">
	<g>
		<path fill="#ffffff" d="M34.4,151.1c-4.7-0.6-10.7-2-13-5.1c-0.4-0.5-0.6-1-0.7-1.6c0,0,0-0.1,0-0.1l0,0c-0.5-2.6,1.3-5.7,2-6.7
			h0.3c0,0-0.3-0.4-0.7-1.1c-0.4-0.7-0.9-1.8-1.2-3.2c-0.4-1.4-0.6-3.1-0.6-5c-0.1-1.9-0.2-4.1-0.3-6.5c-0.2-4.8-0.4-10.4-0.7-16.4
			c-0.2-6-0.4-12.4-0.7-18.7c-0.2-6.4-0.4-12.8-0.5-18.7c-0.2-6-0.3-11.6-0.3-16.4c-0.1-9.6-0.1-16-0.1-16h-0.4c0,0,0,6.4-0.1,16
			c-0.1,4.8-0.2,10.4-0.3,16.4c-0.1,6-0.3,12.4-0.5,18.7c-0.2,6.4-0.5,12.8-0.7,18.7c-0.3,6-0.5,11.6-0.7,16.4
			c-0.1,2.4-0.2,4.6-0.3,6.5c-0.1,1.9-0.3,3.6-0.6,5c-0.3,1.4-0.8,2.5-1.2,3.2c-0.4,0.7-0.7,1.1-0.7,1.1h0.3c0.7,1,2.5,4,2,6.7l0,0
			c0,0,0,0.1,0,0.1c-0.1,0.6-0.4,1.1-0.7,1.6c-2.2,3.1-8.3,4.5-13,5.1l-0.2,0.1c13.3,1.1,14.1,9.3,13,15.3c0.8,3.4,1.3,7.5,1.1,12.2
			c-0.2,2.2-0.4,4.4-0.6,6.5c0,0.3,0,0.7-0.2,1c-0.2,0.3-0.5,0.7-0.7,1c-0.2,0.3,0,0.7,0.1,1c0.1,0.3,0.3,0.6,0.5,1
			c0.8,1.3,2.1,2.4,2.5,3.5c0.4,1.1,0.6,2.1,0.8,3c0.2,0.9,0.3,1.7,0.4,2.3c0.1,1.3,0.1,2,0.1,2h0.3c0,0,0-0.7,0.1-2
			c0.1-0.6,0.2-1.4,0.4-2.3c0.2-0.9,0.4-1.9,0.8-3c0.4-1.1,1.6-2.3,2.5-3.5c0.2-0.3,0.4-0.6,0.5-1c0.1-0.3,0.3-0.6,0.1-1
			c-0.1-0.3-0.5-0.7-0.7-1c-0.1-0.1-0.1-0.3-0.1-0.4c0-0.7-0.2-2.2-0.4-4.6c-0.6-5.8-0.1-10.6,0.9-14.6c-1.2-5.9-0.4-14.3,12.9-15.4
			l0,0L34.4,151.1z"/>
	</g>
</svg>
