<?xml version="1.0" encoding="utf-8"?>
<!-- Generator: Adobe Illustrator 18.1.0, SVG Export Plug-In . SVG Version: 6.00 Build 0)  -->
<svg version="1.1" xmlns="http://www.w3.org/2000/svg" xmlns:xlink="http://www.w3.org/1999/xlink" x="0px" y="0px"
	 viewBox="0 0 35 200" enable-background="new 0 0 35 200" xml:space="preserve">
	<g>
		<path fill="#ffffff" d="M21.1,185.5l0-0.7l0-1.4L21,178c0-1.8,0-3.7,0-5.5c0-1.8,0.1-3.7,0.2-5.5c0.1-1.8,0.2-3.7,0.4-5.5l0.1-1.4
			c0-0.4,0.1-0.7,0.2-1.1l4.5-3l-4.7-3.1c-0.2-0.6-0.3-1.1-0.3-1.7c0-1.6,0.6-3.1,1.6-4.2h-0.1c0,0-0.3-0.6-0.7-1.7
			c-0.4-1.1-0.9-2.7-1.2-4.7c-0.4-2-0.6-4.4-0.6-7.2c-0.1-2.8-0.2-6-0.3-9.4c-0.2-6.9-0.5-14.9-0.7-23.5c-0.2-8.6-0.5-17.8-0.7-27
			c-0.2-9.2-0.4-18.4-0.5-27c-0.1-4.3-0.1-8.5-0.2-12.4c0-3.9-0.1-7.7-0.1-11.1c-0.1-6.9-0.1-12.6-0.2-16.6c0-4,0-6.3,0-6.3h-0.3
			c0,0,0,2.3,0,6.3c0,4-0.1,9.8-0.2,16.6c0,3.4-0.1,7.2-0.1,11.1c-0.1,3.9-0.1,8.1-0.2,12.4c-0.2,8.6-0.4,17.8-0.5,27
			c-0.2,9.2-0.5,18.4-0.7,27c-0.3,8.6-0.5,16.6-0.7,23.5c-0.1,3.4-0.2,6.6-0.3,9.4c-0.1,2.8-0.3,5.2-0.6,7.2c-0.3,2-0.8,3.6-1.2,4.7
			c-0.4,1.1-0.7,1.7-0.7,1.7H12c1,1.1,1.6,2.6,1.6,4.2c0,0.6-0.1,1.2-0.3,1.7l-4.7,3.1l4.5,3c0.1,0.4,0.2,0.7,0.2,1.1l0.1,1.4
			c0.2,1.8,0.3,3.7,0.4,5.5c0.1,1.8,0.1,3.7,0.2,5.5c0,1.8,0,3.7,0,5.5l-0.1,5.5l0,1.4l0,0.7c0,0.2,0,0.5-0.2,0.7
			c-0.3,0.5-0.8,0.9-0.8,1.4c0.1,0.5,0.3,0.9,0.5,1.4c0.5,0.9,1.4,1.8,2,2.8c0.6,0.9,0.8,1.8,1,2.8c0.4,1.8,0.8,3.7,0.8,5.5h0.3
			c0-1.8,0.3-3.7,0.8-5.5c0.2-0.9,0.4-1.8,1-2.8c0.6-0.9,1.5-1.8,2-2.8c0.3-0.5,0.5-0.9,0.5-1.4c0-0.5-0.5-0.9-0.8-1.4
			C21.1,186,21.1,185.8,21.1,185.5z"/>
	</g>
</svg>
